<svg version="1.1" viewBox="0.0 0.0 960.0 720.0" fill="none" stroke="none" stroke-linecap="square" stroke-miterlimit="10" xmlns:xlink="http://www.w3.org/1999/xlink" xmlns="http://www.w3.org/2000/svg"><clipPath id="p.0"><path d="m0 0l960.0 0l0 720.0l-960.0 0l0 -720.0z" clip-rule="nonzero"/></clipPath><g clip-path="url(#p.0)"><path fill="#000000" fill-opacity="0.0" d="m0 0l960.0 0l0 720.0l-960.0 0z" fill-rule="evenodd"/><path fill="#6aa84f" d="m298.89423 358.2957l0 0c0 -102.97472 82.41687 -186.45221 184.08322 -186.45221l0 0c48.82193 0 95.644196 19.644012 130.16653 54.61058c34.522278 34.966568 53.916687 82.39143 53.916687 131.84163l0 0c0 102.9747 -82.41687 186.45218 -184.08322 186.45218l0 0c-101.66635 0 -184.08322 -83.47748 -184.08322 -186.45218z" fill-rule="evenodd"/><path stroke="#000000" stroke-width="4.0" stroke-linejoin="round" stroke-linecap="butt" d="m298.89423 358.2957l0 0c0 -102.97472 82.41687 -186.45221 184.08322 -186.45221l0 0c48.82193 0 95.644196 19.644012 130.16653 54.61058c34.522278 34.966568 53.916687 82.39143 53.916687 131.84163l0 0c0 102.9747 -82.41687 186.45218 -184.08322 186.45218l0 0c-101.66635 0 -184.08322 -83.47748 -184.08322 -186.45218z" fill-rule="evenodd"/><path fill="#000000" d="m445.67294 311.28952l84.28543 -65.02835l93.317444 -24.486465l-168.57083 130.05666z" fill-rule="evenodd"/><path stroke="#000000" stroke-width="4.0" stroke-linejoin="round" stroke-linecap="butt" d="m445.67294 311.28952l84.28543 -65.02835l93.317444 -24.486465l-168.57083 130.05666z" fill-rule="evenodd"/><path fill="#000000" d="m464.15176 311.2626l-84.28543 -65.02832l-93.317444 -24.48648l168.57083 130.05667z" fill-rule="evenodd"/><path stroke="#000000" stroke-width="4.0" stroke-linejoin="round" stroke-linecap="butt" d="m464.15176 311.2626l-84.28543 -65.02832l-93.317444 -24.48648l168.57083 130.05667z" fill-rule="evenodd"/><path fill="#000000" d="m347.46533 348.3182l0 0c0 -11.005951 8.323273 -19.92804 18.590576 -19.92804l0 0c4.9305115 0 9.659119 2.0995483 13.145538 5.836792c3.4863892 3.7372437 5.445038 8.806 5.445038 14.091248l0 0c0 11.005951 -8.323273 19.92804 -18.590576 19.92804l0 0c-10.267303 0 -18.590576 -8.922089 -18.590576 -19.92804z" fill-rule="evenodd"/><path stroke="#000000" stroke-width="4.0" stroke-linejoin="round" stroke-linecap="butt" d="m347.46533 348.3182l0 0c0 -11.005951 8.323273 -19.92804 18.590576 -19.92804l0 0c4.9305115 0 9.659119 2.0995483 13.145538 5.836792c3.4863892 3.7372437 5.445038 8.806 5.445038 14.091248l0 0c0 11.005951 -8.323273 19.92804 -18.590576 19.92804l0 0c-10.267303 0 -18.590576 -8.922089 -18.590576 -19.92804z" fill-rule="evenodd"/><path fill="#000000" d="m543.2369 331.92667l0 0c0 -15.951965 13.418823 -28.883545 29.97174 -28.883545l0 0c7.9489746 0 15.572449 3.0430603 21.193237 8.459778c5.6207886 5.4167175 8.778503 12.763367 8.778503 20.423767l0 0c0 15.951935 -13.418823 28.883545 -29.97174 28.883545l0 0c-16.552917 0 -29.97174 -12.93161 -29.97174 -28.883545z" fill-rule="evenodd"/><path stroke="#000000" stroke-width="4.0" stroke-linejoin="round" stroke-linecap="butt" d="m543.2369 331.92667l0 0c0 -15.951965 13.418823 -28.883545 29.97174 -28.883545l0 0c7.9489746 0 15.572449 3.0430603 21.193237 8.459778c5.6207886 5.4167175 8.778503 12.763367 8.778503 20.423767l0 0c0 15.951935 -13.418823 28.883545 -29.97174 28.883545l0 0c-16.552917 0 -29.97174 -12.93161 -29.97174 -28.883545z" fill-rule="evenodd"/><path fill="#eeeeee" d="m370.5888 457.64227l0 -51.725037c0 5.713379 52.067383 10.345001 116.29578 10.345001c64.22839 0 116.29578 -4.6316223 116.29578 -10.345001l0 51.725037l0 0c0 5.7134094 -52.067383 10.345001 -116.29578 10.345001c-64.22839 0 -116.29578 -4.631592 -116.29578 -10.345001z" fill-rule="evenodd"/><path stroke="#000000" stroke-width="4.0" stroke-linejoin="round" stroke-linecap="butt" d="m370.5888 457.64227l0 -51.725037c0 5.713379 52.067383 10.345001 116.29578 10.345001c64.22839 0 116.29578 -4.6316223 116.29578 -10.345001l0 51.725037l0 0c0 5.7134094 -52.067383 10.345001 -116.29578 10.345001c-64.22839 0 -116.29578 -4.631592 -116.29578 -10.345001z" fill-rule="evenodd"/><path fill="#eeeeee" d="m370.5888 462.38562l0 -28.008423c0 3.09375 52.067383 5.6016846 116.29578 5.6016846c64.22839 0 116.29578 -2.5079346 116.29578 -5.6016846l0 28.008423l0 0c0 3.0937195 -52.067383 5.601654 -116.29578 5.601654c-64.22839 0 -116.29578 -2.5079346 -116.29578 -5.601654z" fill-rule="evenodd"/><path stroke="#000000" stroke-width="4.0" stroke-linejoin="round" stroke-linecap="butt" d="m370.5888 462.38562l0 -28.008423c0 3.09375 52.067383 5.6016846 116.29578 5.6016846c64.22839 0 116.29578 -2.5079346 116.29578 -5.6016846l0 28.008423l0 0c0 3.0937195 -52.067383 5.601654 -116.29578 5.601654c-64.22839 0 -116.29578 -2.5079346 -116.29578 -5.601654z" fill-rule="evenodd"/><path fill="#6aa84f" d="m680.9507 376.1921l0 0c0 -79.58148 61.07367 -144.09503 136.41193 -144.09503l0 0c36.17871 0 70.87561 15.1813965 96.457825 42.204468c25.582214 27.02304 39.954163 63.674194 39.954163 101.890564l0 0c0 79.58151 -61.07373 144.09506 -136.41199 144.09506l0 0c-75.33826 0 -136.41193 -64.51355 -136.41193 -144.09506z" fill-rule="evenodd"/><path stroke="#000000" stroke-width="4.0" stroke-linejoin="round" stroke-linecap="butt" d="m680.9507 376.1921l0 0c0 -79.58148 61.07367 -144.09503 136.41193 -144.09503l0 0c36.17871 0 70.87561 15.1813965 96.457825 42.204468c25.582214 27.02304 39.954163 63.674194 39.954163 101.890564l0 0c0 79.58151 -61.07373 144.09506 -136.41199 144.09506l0 0c-75.33826 0 -136.41193 -64.51355 -136.41193 -144.09506z" fill-rule="evenodd"/><path fill="#000000" d="m789.7284 339.86096l62.46393 -50.253876l69.15753 -18.923157l-124.927795 100.50778z" fill-rule="evenodd"/><path stroke="#000000" stroke-width="4.0" stroke-linejoin="round" stroke-linecap="butt" d="m789.7284 339.86096l62.46393 -50.253876l69.15753 -18.923157l-124.927795 100.50778z" fill-rule="evenodd"/><path fill="#000000" d="m803.42303 339.84018l-62.46393 -50.253876l-69.15753 -18.923157l124.92786 100.50778z" fill-rule="evenodd"/><path stroke="#000000" stroke-width="4.0" stroke-linejoin="round" stroke-linecap="butt" d="m803.42303 339.84018l-62.46393 -50.253876l-69.15753 -18.923157l124.92786 100.50778z" fill-rule="evenodd"/><path fill="#000000" d="m716.9467 368.4863l0 0c0 -8.510681 6.1654053 -15.409943 13.770813 -15.409943l0 0c3.6522217 0 7.154907 1.6235657 9.737427 4.513489c2.5825195 2.889923 4.033386 6.8094788 4.033386 10.896454l0 0c0 8.510681 -6.1654053 15.409943 -13.770813 15.409943l0 0c-7.6054077 0 -13.770813 -6.8992615 -13.770813 -15.409943z" fill-rule="evenodd"/><path stroke="#000000" stroke-width="4.0" stroke-linejoin="round" stroke-linecap="butt" d="m716.9467 368.4863l0 0c0 -8.510681 6.1654053 -15.409943 13.770813 -15.409943l0 0c3.6522217 0 7.154907 1.6235657 9.737427 4.513489c2.5825195 2.889923 4.033386 6.8094788 4.033386 10.896454l0 0c0 8.510681 -6.1654053 15.409943 -13.770813 15.409943l0 0c-7.6054077 0 -13.770813 -6.8992615 -13.770813 -15.409943z" fill-rule="evenodd"/><path fill="#000000" d="m862.033 355.79626l0 0c0 -12.320435 9.937134 -22.308105 22.195251 -22.308105l0 0c5.8865967 0 11.532043 2.3503113 15.694458 6.5338745c4.1624146 4.1835938 6.5008545 9.857758 6.5008545 15.774231l0 0c0 12.320435 -9.937134 22.308105 -22.195312 22.308105l0 0c-12.258118 0 -22.195251 -9.987671 -22.195251 -22.308105z" fill-rule="evenodd"/><path stroke="#000000" stroke-width="4.0" stroke-linejoin="round" stroke-linecap="butt" d="m862.033 355.79626l0 0c0 -12.320435 9.937134 -22.308105 22.195251 -22.308105l0 0c5.8865967 0 11.532043 2.3503113 15.694458 6.5338745c4.1624146 4.1835938 6.5008545 9.857758 6.5008545 15.774231l0 0c0 12.320435 -9.937134 22.308105 -22.195312 22.308105l0 0c-12.258118 0 -22.195251 -9.987671 -22.195251 -22.308105z" fill-rule="evenodd"/><path fill="#eeeeee" d="m734.0835 452.9624l0 -39.973114c0 4.415283 38.58716 7.9945984 86.18683 7.9945984c47.59967 0 86.18683 -3.5793152 86.18683 -7.9945984l0 39.973114l0 0c0 4.415283 -38.58716 7.9945984 -86.18683 7.9945984c-47.59967 0 -86.18683 -3.5793152 -86.18683 -7.9945984z" fill-rule="evenodd"/><path stroke="#000000" stroke-width="4.0" stroke-linejoin="round" stroke-linecap="butt" d="m734.0835 452.9624l0 -39.973114c0 4.415283 38.58716 7.9945984 86.18683 7.9945984c47.59967 0 86.18683 -3.5793152 86.18683 -7.9945984l0 39.973114l0 0c0 4.415283 -38.58716 7.9945984 -86.18683 7.9945984c-47.59967 0 -86.18683 -3.5793152 -86.18683 -7.9945984z" fill-rule="evenodd"/><path fill="#eeeeee" d="m734.0835 456.62805l0 -21.644897c0 2.390808 38.58716 4.3289795 86.18683 4.3289795c47.59967 0 86.18683 -1.9381714 86.18683 -4.3289795l0 21.644897l0 0c0 2.390808 -38.58716 4.328949 -86.18683 4.328949c-47.59967 0 -86.18683 -1.9381409 -86.18683 -4.328949z" fill-rule="evenodd"/><path stroke="#000000" stroke-width="4.0" stroke-linejoin="round" stroke-linecap="butt" d="m734.0835 456.62805l0 -21.644897c0 2.390808 38.58716 4.3289795 86.18683 4.3289795c47.59967 0 86.18683 -1.9381714 86.18683 -4.3289795l0 21.644897l0 0c0 2.390808 -38.58716 4.328949 -86.18683 4.328949c-47.59967 0 -86.18683 -1.9381409 -86.18683 -4.328949z" fill-rule="evenodd"/><path fill="#6aa84f" d="m16.303522 379.10333l0 0c0 -79.58151 61.073715 -144.09505 136.41196 -144.09505l0 0c36.178696 0 70.87561 15.1813965 96.45781 42.204453c25.5822 27.023071 39.954147 63.674194 39.954147 101.890594l0 0c0 79.58148 -61.073715 144.09503 -136.41196 144.09503l0 0c-75.33825 0 -136.41196 -64.51355 -136.41196 -144.09503z" fill-rule="evenodd"/><path stroke="#000000" stroke-width="4.0" stroke-linejoin="round" stroke-linecap="butt" d="m16.303522 379.10333l0 0c0 -79.58151 61.073715 -144.09505 136.41196 -144.09505l0 0c36.178696 0 70.87561 15.1813965 96.45781 42.204453c25.5822 27.023071 39.954147 63.674194 39.954147 101.890594l0 0c0 79.58148 -61.073715 144.09503 -136.41196 144.09503l0 0c-75.33825 0 -136.41196 -64.51355 -136.41196 -144.09503z" fill-rule="evenodd"/><path fill="#000000" d="m125.081245 342.7722l62.46392 -50.253906l69.15756 -18.923126l-124.92784 100.50778z" fill-rule="evenodd"/><path stroke="#000000" stroke-width="4.0" stroke-linejoin="round" stroke-linecap="butt" d="m125.081245 342.7722l62.46392 -50.253906l69.15756 -18.923126l-124.92784 100.50778z" fill-rule="evenodd"/><path fill="#000000" d="m138.7759 342.7514l-62.46393 -50.253906l-69.157555 -18.923126l124.92785 100.50778z" fill-rule="evenodd"/><path stroke="#000000" stroke-width="4.0" stroke-linejoin="round" stroke-linecap="butt" d="m138.7759 342.7514l-62.46393 -50.253906l-69.157555 -18.923126l124.92785 100.50778z" fill-rule="evenodd"/><path fill="#000000" d="m52.29957 371.39752l0 0c0 -8.510681 6.1654015 -15.409943 13.770805 -15.409943l0 0c3.6522446 0 7.1548996 1.6235352 9.737427 4.5134583c2.5825272 2.889923 4.0333786 6.8095093 4.0333786 10.896484l0 0c0 8.510681 -6.1654053 15.409943 -13.770805 15.409943l0 0c-7.605404 0 -13.770805 -6.8992615 -13.770805 -15.409943z" fill-rule="evenodd"/><path stroke="#000000" stroke-width="4.0" stroke-linejoin="round" stroke-linecap="butt" d="m52.29957 371.39752l0 0c0 -8.510681 6.1654015 -15.409943 13.770805 -15.409943l0 0c3.6522446 0 7.1548996 1.6235352 9.737427 4.5134583c2.5825272 2.889923 4.0333786 6.8095093 4.0333786 10.896484l0 0c0 8.510681 -6.1654053 15.409943 -13.770805 15.409943l0 0c-7.605404 0 -13.770805 -6.8992615 -13.770805 -15.409943z" fill-rule="evenodd"/><path fill="#000000" d="m197.38586 358.70746l0 0c0 -12.320404 9.937164 -22.308105 22.195282 -22.308105l0 0c5.886566 0 11.532028 2.3503113 15.694458 6.533905c4.1624146 4.1835938 6.500839 9.857727 6.500839 15.7742l0 0c0 12.320435 -9.937164 22.308136 -22.195297 22.308136l0 0c-12.258118 0 -22.195282 -9.987701 -22.195282 -22.308136z" fill-rule="evenodd"/><path stroke="#000000" stroke-width="4.0" stroke-linejoin="round" stroke-linecap="butt" d="m197.38586 358.70746l0 0c0 -12.320404 9.937164 -22.308105 22.195282 -22.308105l0 0c5.886566 0 11.532028 2.3503113 15.694458 6.533905c4.1624146 4.1835938 6.500839 9.857727 6.500839 15.7742l0 0c0 12.320435 -9.937164 22.308136 -22.195297 22.308136l0 0c-12.258118 0 -22.195282 -9.987701 -22.195282 -22.308136z" fill-rule="evenodd"/><path fill="#eeeeee" d="m69.43638 455.8736l0 -39.973114c0 4.4153137 38.587143 7.994629 86.186806 7.994629c47.599655 0 86.1868 -3.5793152 86.1868 -7.994629l0 39.973114l0 0c0 4.4153137 -38.587143 7.994629 -86.1868 7.994629c-47.599663 0 -86.186806 -3.5793152 -86.186806 -7.994629z" fill-rule="evenodd"/><path stroke="#000000" stroke-width="4.0" stroke-linejoin="round" stroke-linecap="butt" d="m69.43638 455.8736l0 -39.973114c0 4.4153137 38.587143 7.994629 86.186806 7.994629c47.599655 0 86.1868 -3.5793152 86.1868 -7.994629l0 39.973114l0 0c0 4.4153137 -38.587143 7.994629 -86.1868 7.994629c-47.599663 0 -86.186806 -3.5793152 -86.186806 -7.994629z" fill-rule="evenodd"/><path fill="#eeeeee" d="m69.43638 459.53925l0 -21.644897c0 2.3908386 38.587143 4.3289795 86.186806 4.3289795c47.599655 0 86.1868 -1.9381409 86.1868 -4.3289795l0 21.644897l0 0c0 2.3908386 -38.587143 4.3289795 -86.1868 4.3289795c-47.599663 0 -86.186806 -1.9381409 -86.186806 -4.3289795z" fill-rule="evenodd"/><path stroke="#000000" stroke-width="4.0" stroke-linejoin="round" stroke-linecap="butt" d="m69.43638 459.53925l0 -21.644897c0 2.3908386 38.587143 4.3289795 86.186806 4.3289795c47.599655 0 86.1868 -1.9381409 86.1868 -4.3289795l0 21.644897l0 0c0 2.3908386 -38.587143 4.3289795 -86.1868 4.3289795c-47.599663 0 -86.186806 -1.9381409 -86.186806 -4.3289795z" fill-rule="evenodd"/></g></svg>